<?xml version="1.0" encoding="iso-8859-1"?>
<!-- Uploaded to: SVG Repo, www.svgrepo.com, Generator: SVG Repo Mixer Tools -->
<svg height="800px" width="800px" version="1.1" id="Layer_1" xmlns="http://www.w3.org/2000/svg" xmlns:xlink="http://www.w3.org/1999/xlink" 
	 viewBox="0 0 261.164 261.164" xml:space="preserve">
<g>
	<g>
		<path style="fill:#4EFFBB;" d="M242.969,21.295c-2.952-3.396-8.048-3.68-11.363-0.687L194.485,54.09H50.855
			c-3.196,0-6.064,1.899-7.361,4.852c-0.484,1.053-0.687,2.184-0.687,3.315c0,1.981,0.687,3.921,2.062,5.458l89.286,100.929v76.183
			h-31.826c-4.449,0-8.048,3.64-8.048,8.17c0,4.489,3.599,8.167,8.048,8.167h79.782c4.449,0,8.048-3.68,8.048-8.167
			c0-4.53-3.599-8.17-8.048-8.17h-31.863v-76.18l89.326-100.929c1.334-1.537,2.062-3.477,2.062-5.458
			c0-1.131-0.244-2.265-0.687-3.315c-1.293-2.952-4.165-4.852-7.361-4.852h-14.88l23.575-21.269
			C245.597,29.827,245.922,24.651,242.969,21.295z"/>
		<g id="XMLID_16_">
			<g>
				<path style="fill:#302C58;" d="M120.18,116.426c12.615,0,22.969-10.029,23.859-22.644h7.682l-36.153,40.883l-36.15-40.883
					h16.903C97.171,106.398,107.521,116.426,120.18,116.426z"/>
				<path style="fill:#222051;" d="M98.402,35.432H78.947c-4.511,0-8.17,3.658-8.17,8.17l0,0c0,4.511,3.658,8.17,8.17,8.17h19.454
					c4.511,0,8.17-3.658,8.17-8.17l0,0C106.568,39.09,102.913,35.432,98.402,35.432z"/>
				<path style="fill:#222051;" d="M215.352,1.688c-3.121-2.549-7.754-2.099-10.747,0.6l-36.75,33.144h-44.157
					c-4.511,0-8.17,3.658-8.17,8.17l0,0c0,4.511,3.658,8.17,8.17,8.17h26.04l-19.976,18.036c-2.952-1.293-6.186-2.062-9.585-2.062
					c-7.804,0-14.718,3.843-19.086,9.704H64.982L42.257,51.771h11.394c4.511,0,8.167-3.658,8.167-8.17l0,0
					c0-4.511-3.655-8.17-8.167-8.17h-29.43c-3.196,0-6.064,1.899-7.361,4.852c-0.484,1.05-0.687,2.184-0.687,3.315
					c0,1.981,0.687,3.924,2.062,5.458l89.286,100.933v76.183H75.698c-4.449,0-8.048,3.64-8.048,8.17c0,4.489,3.599,8.17,8.048,8.17
					h79.31c4.055,0,7.779-2.799,8.41-6.804c0.809-5.139-3.052-9.532-7.939-9.532h-31.863V149.99l89.327-100.93
					c1.334-1.537,2.062-3.477,2.062-5.458c0-1.247-0.294-2.493-0.828-3.63c-1.34-2.859-4.383-4.536-7.542-4.536h-14.556
					l23.575-21.269C219.298,10.87,219.326,4.934,215.352,1.688z M120.18,84.078c4.327,0,7.845,3.599,7.845,8.007
					c0,4.408-3.518,8.007-7.845,8.007s-7.885-3.599-7.885-8.007S115.853,84.078,120.18,84.078z M115.569,134.665l-36.15-40.883
					h16.902c0.85,12.615,11.2,22.644,23.856,22.644c12.615,0,22.969-10.029,23.859-22.644h7.682L115.569,134.665z M166.196,77.446
					h-20.704l28.467-25.678h14.962L166.196,77.446z"/>
			</g>
		</g>
	</g>
</g>
</svg>